<svg xmlns="http://www.w3.org/2000/svg" viewBox="0 0 64 64" shape-rendering="crispEdges" role="img" aria-label="Paper Owl hatchling stage">
  <!-- phase6d-creature-art phase6d1-pet-evolution: paper-owl hatchling baby owl eyes wings -->
  <g id="body" fill="#f3ecff"><path d="M22 20h20v8h7v19h-6v7H21v-7h-6V28h7z"/></g>
  <g id="ear-tufts" fill="#d717ff"><polygon points="20,22 27,10 30,25"/><polygon points="44,22 37,10 34,25"/></g>
  <g id="wings" fill="#97ff4c"><rect x="13" y="36" width="7" height="14"/><rect x="44" y="36" width="7" height="14"/></g>
  <g id="face-discs" fill="#53b4ff"><rect x="23" y="29" width="9" height="9"/><rect x="33" y="29" width="9" height="9"/></g>
  <g id="eyes" fill="#12051f"><rect x="26" y="32" width="4" height="4"/><rect x="36" y="32" width="4" height="4"/></g>
  <g id="beak-and-feet" fill="#ffc44d"><polygon points="32,39 36,44 28,44"/><rect x="25" y="54" width="5" height="4"/><rect x="35" y="54" width="5" height="4"/></g>
</svg>
