<svg xmlns="http://www.w3.org/2000/svg" viewBox="0 0 96 96" shape-rendering="crispEdges" role="img" aria-label="Data Frog adult stage">
  <!-- phase6d-creature-art phase6d1-pet-evolution: data-frog adult frog head body eyes legs feet -->
  <g id="shadow" fill="#06110c"><ellipse cx="48" cy="80" rx="34" ry="6"/></g>
  <g id="hind-legs" fill="#1f9f51"><path d="M16 60h18v10H26v6H10V66h6z"/><path d="M62 60h18v6h6v10H70v-6h-8z"/></g>
  <g id="webbed-feet" fill="#97ff4c"><rect x="6" y="74" width="26" height="7"/><rect x="64" y="74" width="26" height="7"/><rect x="14" y="68" width="8" height="6"/><rect x="74" y="68" width="8" height="6"/></g>
  <g id="frog-body" fill="#39d86c"><path d="M20 45h56v18h-6v10H26V63h-6z"/><rect x="28" y="34" width="40" height="18"/></g>
  <g id="frog-head" fill="#97ff4c"><path d="M18 28h60v22H18z"/><rect x="24" y="20" width="48" height="12"/></g>
  <g id="eye-bumps" fill="#97ff4c"><path d="M18 14h20v18H16V20h2z"/><path d="M58 14h20v6h2v12H58z"/></g>
  <g id="eyes" fill="#12051f"><rect x="23" y="19" width="10" height="10"/><rect x="63" y="19" width="10" height="10"/></g>
  <g id="data-belly" fill="#53b4ff"><path d="M34 51h28v13h-4v5H38v-5h-4z"/><rect x="42" y="43" width="12" height="8"/></g>
</svg>
