<svg xmlns="http://www.w3.org/2000/svg" viewBox="0 0 64 64" shape-rendering="crispEdges" role="img" aria-label="Market Mantis juvenile stage">
  <!-- phase6d-creature-art phase6d1-pet-evolution: market-mantis juvenile body long arms claws -->
  <g id="back-legs" fill="#1d7f38"><path d="M19 42h8v6h-9v5H8v-5h7v-6z"/><path d="M37 42h8v6h8v5H43v-5h-6z"/></g>
  <g id="body" fill="#97ff4c"><rect x="27" y="20" width="10" height="35"/><rect x="22" y="34" width="20" height="13"/></g>
  <g id="head" fill="#39d86c"><rect x="20" y="15" width="24" height="11"/><rect x="15" y="22" width="34" height="8"/></g>
  <g id="eyes" fill="#53b4ff"><ellipse cx="20" cy="24" rx="5" ry="6"/><ellipse cx="44" cy="24" rx="5" ry="6"/></g>
  <g id="antennae" fill="#ffc44d"><path d="M25 15h-6v-5h-7V7h13z"/><path d="M39 15h6v-5h7V7H39z"/></g>
  <g id="raptor-arms" fill="#d717ff"><path d="M23 32H10v5H6v18h6V42h11z"/><path d="M41 32h13v5h4v18h-6V42H41z"/></g>
  <g id="forearm-blades" fill="#97ff4c"><polygon points="6,39 14,39 9,58 4,58"/><polygon points="58,39 50,39 55,58 60,58"/></g>
</svg>
