<svg xmlns="http://www.w3.org/2000/svg" viewBox="0 0 64 64" shape-rendering="crispEdges" role="img" aria-label="Data Frog pixel pet">
  <g id="shadow" fill="#06110c">
    <rect x="14" y="50" width="36" height="4"/>
    <rect x="18" y="54" width="28" height="2" opacity=".7"/>
  </g>
  <g id="hind-legs" fill="#39d86c">
    <rect x="10" y="42" width="12" height="8"/>
    <rect x="42" y="42" width="12" height="8"/>
    <rect x="8" y="48" width="18" height="4"/>
    <rect x="38" y="48" width="18" height="4"/>
  </g>
  <g id="body" fill="#97ff4c">
    <rect x="18" y="24" width="28" height="22"/>
    <rect x="14" y="30" width="36" height="14"/>
    <rect x="22" y="20" width="20" height="8"/>
  </g>
  <g id="data-belly" fill="#53b4ff">
    <rect x="24" y="34" width="16" height="8"/>
    <rect x="28" y="30" width="8" height="4"/>
  </g>
  <g id="eye-bumps" fill="#97ff4c">
    <rect x="14" y="16" width="14" height="12"/>
    <rect x="36" y="16" width="14" height="12"/>
  </g>
  <g id="eyes" fill="#12051f">
    <rect x="18" y="20" width="6" height="6"/>
    <rect x="40" y="20" width="6" height="6"/>
  </g>
  <g id="eye-glints" fill="#f3ecff">
    <rect x="18" y="20" width="2" height="2"/>
    <rect x="40" y="20" width="2" height="2"/>
  </g>
  <g id="face" fill="#12051f">
    <rect x="28" y="28" width="2" height="2"/>
    <rect x="34" y="28" width="2" height="2"/>
    <rect x="24" y="38" width="16" height="2"/>
    <rect x="22" y="36" width="2" height="2"/>
    <rect x="40" y="36" width="2" height="2"/>
  </g>
  <g id="neon-nodes" fill="#d717ff">
    <rect x="20" y="44" width="4" height="4"/>
    <rect x="40" y="44" width="4" height="4"/>
  </g>
</svg>
