<svg xmlns="http://www.w3.org/2000/svg" viewBox="0 0 64 64" shape-rendering="crispEdges" role="img" aria-label="Data Frog pixel pet">
  <path fill="#061f18" d="M20 24h4v-8h8v4h4v-4h8v8h4v20h-4v4H20v-4h-4V24z"/>
  <path fill="#53b4ff" d="M20 28h4v-8h8v4h4v-4h8v8h4v16h-4v4H20v-4h-4V28z"/>
  <path fill="#97ff4c" d="M24 20h8v8h-8zm12 0h8v8h-8z"/>
  <path fill="#12051f" d="M28 24h4v4h-4zm8 0h4v4h-4z"/>
  <path fill="#d717ff" d="M28 40h12v4H28z"/>
  <path fill="#97ff4c" d="M12 48h12v4H12zm28 0h12v4H40z"/>
</svg>
