<svg xmlns="http://www.w3.org/2000/svg" viewBox="0 0 64 64" shape-rendering="crispEdges" role="img" aria-label="Market Mantis pixel pet">
  <path fill="#0b1f12" d="M28 12h8v8h8v12h-4v12h-4v8h-8v-8h-4V32h-4V20h8z"/>
  <path fill="#97ff4c" d="M28 16h8v8h4v8h-4v8h-8v-8h-4v-8h4z"/>
  <path fill="#53b4ff" d="M24 24h4v4h-4zm12 0h4v4h-4z"/>
  <path fill="#d717ff" d="M12 16h8v4h-4v8h-4zm32 0h8v12h-4v-8h-4z"/>
  <path fill="#ffc44d" d="M8 36h12v4h-8v4H8zm36 0h12v8h-4v-4h-8z"/>
  <path fill="#041108" d="M28 40h8v4h-8z"/>
</svg>
