<svg xmlns="http://www.w3.org/2000/svg" viewBox="0 0 96 96" shape-rendering="crispEdges" role="img" aria-label="Paper Owl pixel pet">
  <!-- phase6d-creature-art: paper-owl owl body eyes ears wings beak -->
  <g id="tail-shadow" fill="#12051f">
    <rect x="36" y="73" width="24" height="10"/>
  </g>
  <g id="body" fill="#f3ecff">
    <path d="M30 22h36v14h9v31h-8v9H29v-9h-8V36h9z"/>
    <rect x="26" y="42" width="44" height="28"/>
  </g>
  <g id="paper-folds" fill="#c8b8e4">
    <polygon points="30,37 45,37 35,69 26,69"/>
    <polygon points="66,37 51,37 61,69 70,69"/>
    <rect x="46" y="24" width="5" height="48" opacity=".7"/>
  </g>
  <g id="ear-tufts" fill="#d717ff">
    <polygon points="25,24 34,9 40,27"/>
    <polygon points="71,24 62,9 56,27"/>
    <rect x="29" y="19" width="10" height="11"/>
    <rect x="57" y="19" width="10" height="11"/>
  </g>
  <g id="wings" fill="#97ff4c">
    <path d="M18 44h12v27H18v-7h-6V51h6z"/>
    <path d="M78 44H66v27h12v-7h6V51h-6z"/>
  </g>
  <g id="face-discs" fill="#53b4ff">
    <path d="M27 32h19v19H27z"/>
    <path d="M50 32h19v19H50z"/>
    <rect x="39" y="39" width="18" height="10"/>
  </g>
  <g id="eyes" fill="#12051f">
    <circle cx="37" cy="42" r="6"/>
    <circle cx="59" cy="42" r="6"/>
  </g>
  <g id="eye-glints" fill="#f3ecff">
    <rect x="35" y="39" width="3" height="3"/>
    <rect x="57" y="39" width="3" height="3"/>
  </g>
  <g id="beak-and-feet" fill="#ffc44d">
    <polygon points="48,50 55,58 41,58"/>
    <rect x="38" y="78" width="8" height="6"/>
    <rect x="50" y="78" width="8" height="6"/>
  </g>
</svg>
