<svg xmlns="http://www.w3.org/2000/svg" viewBox="0 0 64 64" shape-rendering="crispEdges" role="img" aria-label="Pixel Crab pixel pet">
  <!-- phase6d-creature-art: pixel-crab crab body claws legs eyes -->
  <g id="legs-back" fill="#53b4ff">
    <rect x="10" y="42" width="10" height="4"/>
    <rect x="8" y="46" width="8" height="4"/>
    <rect x="44" y="42" width="10" height="4"/>
    <rect x="48" y="46" width="8" height="4"/>
  </g>
  <g id="shell" fill="#ff5e94">
    <rect x="18" y="24" width="28" height="20"/>
    <rect x="14" y="30" width="36" height="10"/>
    <rect x="22" y="20" width="20" height="6"/>
  </g>
  <g id="shell-shadow" fill="#d73872">
    <rect x="18" y="38" width="28" height="6"/>
    <rect x="42" y="30" width="8" height="10"/>
  </g>
  <g id="eye-stalks" fill="#ffc44d">
    <rect x="22" y="14" width="4" height="10"/>
    <rect x="38" y="14" width="4" height="10"/>
  </g>
  <g id="eyes" fill="#12051f">
    <rect x="20" y="12" width="8" height="6"/>
    <rect x="36" y="12" width="8" height="6"/>
  </g>
  <g id="eye-glints" fill="#f3ecff">
    <rect x="22" y="12" width="2" height="2"/>
    <rect x="38" y="12" width="2" height="2"/>
  </g>
  <g id="claws" fill="#d717ff">
    <rect x="6" y="24" width="10" height="8"/>
    <rect x="4" y="18" width="8" height="8"/>
    <rect x="10" y="16" width="6" height="4"/>
    <rect x="48" y="24" width="10" height="8"/>
    <rect x="52" y="18" width="8" height="8"/>
    <rect x="48" y="16" width="6" height="4"/>
  </g>
  <g id="front-legs" fill="#97ff4c">
    <rect x="18" y="44" width="6" height="6"/>
    <rect x="28" y="44" width="6" height="6"/>
    <rect x="40" y="44" width="6" height="6"/>
  </g>
  <g id="mouth" fill="#12051f">
    <rect x="28" y="34" width="8" height="2"/>
  </g>
</svg>
