<svg xmlns="http://www.w3.org/2000/svg" viewBox="0 0 96 96" shape-rendering="crispEdges" role="img" aria-label="Repo Slime pixel pet">
  <!-- phase6d-creature-art: repo-slime blob body eyes goo drip -->
  <g id="shadow" fill="#06110c">
    <ellipse cx="48" cy="81" rx="36" ry="6"/>
  </g>
  <g id="slime-body" fill="#97ff4c">
    <path d="M33 18h30v8h10v10h8v26h-6v10H63v8H33v-8H21V62h-6V36h8V26h10z"/>
    <rect x="19" y="50" width="58" height="17"/>
  </g>
  <g id="goo-drips" fill="#39d86c">
    <path d="M22 62h11v18H22z"/>
    <path d="M62 62h12v14h-6v8h-6z"/>
    <rect x="38" y="68" width="10" height="12"/>
  </g>
  <g id="slime-depth" fill="#39d86c">
    <rect x="17" y="56" width="62" height="10"/>
    <rect x="25" y="66" width="48" height="6"/>
    <rect x="66" y="39" width="9" height="20"/>
  </g>
  <g id="shine" fill="#c9ff8a">
    <path d="M29 28h21v7H38v6H25v-8h4z"/>
    <rect x="22" y="43" width="10" height="7"/>
  </g>
  <g id="eyes" fill="#12051f">
    <rect x="34" y="46" width="9" height="9"/>
    <rect x="57" y="46" width="9" height="9"/>
  </g>
  <g id="mouth" fill="#12051f">
    <rect x="41" y="61" width="18" height="4"/>
    <rect x="37" y="57" width="4" height="4"/>
    <rect x="59" y="57" width="4" height="4"/>
  </g>
  <g id="repo-chip" fill="#53b4ff">
    <rect x="42" y="20" width="14" height="7"/>
    <rect x="46" y="13" width="6" height="7"/>
  </g>
  <g id="neon-drip" fill="#d717ff">
    <rect x="73" y="58" width="6" height="18"/>
    <rect x="75" y="76" width="4" height="6"/>
  </g>
</svg>
