<svg xmlns="http://www.w3.org/2000/svg" viewBox="0 0 64 64" shape-rendering="crispEdges" role="img" aria-label="Terminal Bat pixel pet">
  <path fill="#12051f" d="M4 20h8v4h4v4h4v-4h4v8h16v-8h4v4h4v-4h4v-4h8v24h-8v-4h-4v-4h-8v8h-4v4h-8v-4h-4v-8h-8v4h-4v4H4z"/>
  <path fill="#d717ff" d="M8 24h8v4h4v4h4v4h-8v-4h-4v-4H8zm40 0h8v4h-4v4h-4v4h-8v-4h4v-4h4z"/>
  <path fill="#2b0f45" d="M24 28h16v16H24z"/>
  <path fill="#53b4ff" d="M28 32h4v4h-4zm8 0h4v4h-4z"/>
  <path fill="#97ff4c" d="M28 40h12v4H28z"/>
  <path fill="#ff74ae" d="M24 20h4v8h-4zm12 0h4v8h-4z"/>
</svg>
