<svg xmlns="http://www.w3.org/2000/svg" viewBox="0 0 64 64" shape-rendering="crispEdges" role="img" aria-label="Terminal Bat pixel pet">
  <g id="wing-shadow" fill="#0a0612">
    <rect x="2" y="22" width="10" height="22"/>
    <rect x="12" y="26" width="8" height="18"/>
    <rect x="44" y="26" width="8" height="18"/>
    <rect x="52" y="22" width="10" height="22"/>
  </g>
  <g id="wings" fill="#2b0f45">
    <rect x="4" y="20" width="10" height="8"/>
    <rect x="8" y="28" width="10" height="8"/>
    <rect x="12" y="36" width="10" height="8"/>
    <rect x="18" y="30" width="8" height="10"/>
    <rect x="50" y="20" width="10" height="8"/>
    <rect x="46" y="28" width="10" height="8"/>
    <rect x="42" y="36" width="10" height="8"/>
    <rect x="38" y="30" width="8" height="10"/>
  </g>
  <g id="wing-neon" fill="#d717ff">
    <rect x="6" y="22" width="6" height="2"/>
    <rect x="10" y="30" width="6" height="2"/>
    <rect x="48" y="30" width="6" height="2"/>
    <rect x="52" y="22" width="6" height="2"/>
  </g>
  <g id="body" fill="#12051f">
    <rect x="24" y="20" width="16" height="24"/>
    <rect x="20" y="28" width="24" height="14"/>
    <rect x="26" y="44" width="12" height="6"/>
  </g>
  <g id="ears" fill="#ff74ae">
    <rect x="22" y="12" width="6" height="12"/>
    <rect x="36" y="12" width="6" height="12"/>
    <rect x="24" y="10" width="2" height="2"/>
    <rect x="38" y="10" width="2" height="2"/>
  </g>
  <g id="face" fill="#2b0f45">
    <rect x="24" y="22" width="16" height="14"/>
  </g>
  <g id="eyes" fill="#53b4ff">
    <rect x="26" y="26" width="4" height="4"/>
    <rect x="34" y="26" width="4" height="4"/>
  </g>
  <g id="fangs" fill="#f3ecff">
    <rect x="29" y="34" width="2" height="4"/>
    <rect x="33" y="34" width="2" height="4"/>
  </g>
  <g id="terminal-belly" fill="#97ff4c">
    <rect x="28" y="40" width="8" height="2"/>
    <rect x="30" y="44" width="4" height="2"/>
  </g>
</svg>
