<svg xmlns="http://www.w3.org/2000/svg" viewBox="0 0 64 64" shape-rendering="crispEdges" role="img" aria-label="Unknown repo pet pixel sprite">
  <!-- phase6d-creature-art: unknown mystery creature blob hood eyes antennae -->
  <g id="shadow" fill="#090511">
    <rect x="16" y="52" width="32" height="4"/>
  </g>
  <g id="hood" fill="#2b0f45">
    <rect x="22" y="14" width="20" height="8"/>
    <rect x="18" y="22" width="28" height="24"/>
    <rect x="22" y="46" width="20" height="6"/>
  </g>
  <g id="hood-edge" fill="#a98dff">
    <rect x="20" y="20" width="24" height="4"/>
    <rect x="18" y="24" width="4" height="18"/>
    <rect x="42" y="24" width="4" height="18"/>
  </g>
  <g id="creature-face" fill="#12051f">
    <rect x="24" y="26" width="16" height="14"/>
    <rect x="22" y="32" width="20" height="10"/>
  </g>
  <g id="eyes" fill="#97ff4c">
    <rect x="26" y="30" width="4" height="4"/>
    <rect x="34" y="30" width="4" height="4"/>
  </g>
  <g id="antennae" fill="#53b4ff">
    <rect x="26" y="10" width="4" height="4"/>
    <rect x="34" y="10" width="4" height="4"/>
    <rect x="22" y="8" width="4" height="2"/>
    <rect x="38" y="8" width="4" height="2"/>
  </g>
  <g id="tiny-feet" fill="#d717ff">
    <rect x="22" y="50" width="8" height="4"/>
    <rect x="34" y="50" width="8" height="4"/>
  </g>
</svg>
