<svg xmlns="http://www.w3.org/2000/svg" viewBox="0 0 96 96" shape-rendering="crispEdges" role="img" aria-label="Gear Turtle adult stage">
  <!-- phase6d-creature-art phase6d1-pet-evolution: gear-turtle adult shell plates cog crest -->
  <g id="shadow" fill="#090915"><ellipse cx="48" cy="81" rx="31" ry="7"/></g>
  <g id="shell" fill="#5c84cf"><path d="M24 32h48v10h10v26H72v10H24V68H14V42h10z"/></g>
  <g id="shell-plates" fill="#cde8ff"><rect x="32" y="42" width="32" height="18"/><rect x="40" y="62" width="16" height="11"/></g>
  <g id="cog" fill="#ffc44d"><rect x="44" y="46" width="8" height="8"/><rect x="42" y="48" width="12" height="4"/><rect x="46" y="44" width="4" height="12"/><rect x="39" y="49" width="3" height="2"/><rect x="54" y="49" width="3" height="2"/></g>
  <g id="head" fill="#97ffb5"><rect x="41" y="20" width="14" height="11"/><rect x="37" y="27" width="22" height="6"/></g>
  <g id="eyes" fill="#12051f"><rect x="44" y="23" width="3" height="3"/><rect x="50" y="23" width="3" height="3"/></g>
  <g id="crest" fill="#d717ff"><rect x="46" y="16" width="4" height="4"/></g>
  <g id="legs" fill="#53b4ff"><rect x="22" y="66" width="11" height="11"/><rect x="63" y="66" width="11" height="11"/><rect x="33" y="70" width="8" height="8"/><rect x="55" y="70" width="8" height="8"/></g>
</svg>
